# xmcd
#
# Track frame offsets:
#	150
#	18635
#	33958
#	50142
#	66022
#	81142
#
# Disc length: 1320 seconds
#
# Revision: 1
# Processed by: cddbd v1.5.2PL0 Copyright (c) Steve Scherf et al.
# Submitted via: audiograbber 1.83.01
#
DISCID=49052606
DTITLE=Kevin Stokley - Spread A Little Love Around
DYEAR=2013
DGENRE=Country
TTITLE0=Good Man
TTITLE1=Love You Back
TTITLE2=Radio Up
TTITLE3=Summer
TTITLE4=That Girl
TTITLE5=Spread A Little Love Around
EXTD=Copyright 2013 Kevin Stokley
EXTT0=
EXTT1=
EXTT2=
EXTT3=
EXTT4=
EXTT5=
PLAYORDER=
